<?xml version="1.0" encoding="UTF-8" standalone="no"?>
<!DOCTYPE svg PUBLIC "-//W3C//DTD SVG 1.1//EN" "http://www.w3.org/Graphics/SVG/1.1/DTD/svg11.dtd">
<svg version="1.1" xmlns="http://www.w3.org/2000/svg" xmlns:xlink="http://www.w3.org/1999/xlink" preserveAspectRatio="xMidYMid meet" viewBox="0 0 640 640" width="640" height="640"><defs><path d="M624.45 306.35C624.45 452.46 505.83 571.08 359.72 571.08C213.62 571.08 95 452.46 95 306.35C95 160.25 213.62 41.63 359.72 41.63C505.83 41.63 624.45 160.25 624.45 306.35Z" id="c3LUsP0B0i"></path><path d="M495.92 437.48L282.18 318.19L282.18 79.4L472.25 186.47L256.82 305.08L45.93 186.47L230.31 79.4L230.31 318.19L21.62 437.48L21.62 230.73L230.31 348.54L230.31 593.24L45.93 482.63L256.82 360.83L472.25 482.63L282.18 593.24L282.18 348.54L495.92 230.73L495.92 437.48Z" id="e2miuz6WK"></path></defs><g><g><g><use xlink:href="#c3LUsP0B0i" opacity="1" fill="#108d8c" fill-opacity="1"></use></g><g><g><use xlink:href="#e2miuz6WK" opacity="1" fill-opacity="0" stroke="#000000" stroke-width="9" stroke-opacity="1"></use></g></g></g></g></svg>